Coordinates
nRows=312
nColumns=2
inDegrees=yes
endheader
time	ankle_angle_r	
1.69646	  0.152712	
1.72973	  0.181030	
1.76299	  0.188958	
1.79626	  0.182046	
1.82952	  0.172931	
1.86278	  0.167025	
1.89605	  0.168191	
1.92931	  0.174428	
1.96258	  0.177597	
1.99584	  0.176744	
2.0291	  0.176841	
2.06237	  0.178547	
2.09563	  0.180572	
2.1289	  0.181040	
2.16216	  0.177265	
2.19542	  0.171739	
2.22869	  0.171594	
2.26195	  0.182584	
2.29522	  0.203191	
2.32848	  0.225037	
2.36174	  0.243238	
2.39501	  0.255873	
2.42827	  0.259292	
2.46154	  0.256753	
2.4948	  0.253403	
2.52806	  0.245539	
2.56133	  0.235033	
2.59459	  0.232789	
2.62786	  0.239363	
2.66112	  0.246582	
2.69438	  0.250350	
2.72765	  0.250005	
2.76091	  0.247394	
2.79418	  0.245950	
2.82744	  0.247545	
2.8607	  0.251774	
2.89397	  0.253733	
2.92723	  0.250325	
2.9605	  0.248763	
2.99376	  0.252517	
3.02702	  0.254934	
3.06029	  0.258390	
3.09355	  0.270047	
3.12682	  0.282969	
3.16008	  0.285902	
3.19334	  0.277548	
3.22661	  0.267483	
3.25987	  0.269658	
3.29314	  0.282930	
3.3264	  0.288491	
3.35966	  0.277254	
3.39293	  0.257375	
3.42619	  0.238246	
3.45946	  0.228846	
3.49272	  0.235226	
3.52598	  0.250870	
3.55925	  0.265432	
3.59251	  0.273925	
3.62578	  0.272667	
3.65904	  0.262375	
3.6923	  0.249600	
3.72557	  0.239642	
3.75883	  0.237497	
3.7921	  0.244529	
3.82536	  0.251658	
3.85862	  0.253685	
3.89189	  0.257299	
3.92515	  0.263330	
3.95842	  0.263352	
3.99168	  0.255089	
4.02494	  0.245723	
4.05821	  0.242589	
4.09147	  0.243974	
4.12474	  0.242459	
4.158	  0.236261	
4.19126	  0.228510	
4.22453	  0.222450	
4.25779	  0.219045	
4.29106	  0.212164	
4.32432	  0.198937	
4.35758	  0.190011	
4.39085	  0.193198	
4.42411	  0.203203	
4.45738	  0.211437	
4.49064	  0.212142	
4.5239	  0.207556	
4.55717	  0.204991	
4.59043	  0.201541	
4.6237	  0.190508	
4.65696	  0.178384	
4.69022	  0.175951	
4.72349	  0.184635	
4.75675	  0.196208	
4.79002	  0.199211	
4.82328	  0.194014	
4.85654	  0.193824	
4.88981	  0.201070	
4.92307	  0.202712	
4.95634	  0.191968	
4.9896	  0.175689	
5.02286	  0.163180	
5.05613	  0.155814	
5.08939	  0.149160	
5.12266	  0.146788	
5.15592	  0.155854	
5.18918	  0.166857	
5.22245	  0.166572	
5.25571	  0.163070	
5.28898	  0.169033	
5.32224	  0.180431	
5.3555	  0.186985	
5.38877	  0.183521	
5.42203	  0.174302	
5.4553	  0.170582	
5.48856	  0.173464	
5.52182	  0.175920	
5.55509	  0.180586	
5.58835	  0.190670	
5.62162	  0.199924	
5.65488	  0.204392	
5.68814	  0.204502	
5.72141	  0.200629	
5.75467	  0.195668	
5.78794	  0.191285	
5.8212	  0.186896	
5.85446	  0.185618	
5.88773	  0.191170	
5.92099	  0.202366	
5.95426	  0.212807	
5.98752	  0.216399	
6.02078	  0.216885	
6.05405	  0.222155	
6.08731	  0.231053	
6.12058	  0.238077	
6.15384	  0.241852	
6.1871	  0.244152	
6.22037	  0.248539	
6.25363	  0.255363	
6.2869	  0.259040	
6.32016	  0.256855	
6.35342	  0.251362	
6.38669	  0.247250	
6.41995	  0.253338	
6.45322	  0.271411	
6.48648	  0.288107	
6.51974	  0.293309	
6.55301	  0.287464	
6.58627	  0.272907	
6.61954	  0.256760	
6.6528	  0.245643	
6.68606	  0.238748	
6.71933	  0.238637	
6.75259	  0.246499	
6.78586	  0.250689	
6.81912	  0.244831	
6.85238	  0.238419	
6.88565	  0.240288	
6.91891	  0.251121	
6.95218	  0.262964	
6.98544	  0.263515	
7.0187	  0.254485	
7.05197	  0.247820	
7.08523	  0.244651	
7.1185	  0.243528	
7.15176	  0.248180	
7.18502	  0.254114	
7.21829	  0.256982	
7.25155	  0.261818	
7.28482	  0.266793	
7.31808	  0.264573	
7.35134	  0.255482	
7.38461	  0.243165	
7.41787	  0.232489	
7.45114	  0.227041	
7.4844	  0.223506	
7.51766	  0.221510	
7.55093	  0.225000	
7.58419	  0.230068	
7.61746	  0.230124	
7.65072	  0.225270	
7.68398	  0.219074	
7.71725	  0.212799	
7.75051	  0.203632	
7.78378	  0.192387	
7.81704	  0.186849	
7.8503	  0.190643	
7.88357	  0.201569	
7.91683	  0.216446	
7.9501	  0.228382	
7.98336	  0.232897	
8.01662	  0.232249	
8.04989	  0.227927	
8.08315	  0.222021	
8.11642	  0.216368	
8.14968	  0.205264	
8.18294	  0.187557	
8.21621	  0.174643	
8.24947	  0.173070	
8.28274	  0.178589	
8.316	  0.183605	
8.34926	  0.180521	
8.38253	  0.173523	
8.41579	  0.175591	
8.44906	  0.184894	
8.48232	  0.189055	
8.51558	  0.183049	
8.54885	  0.166571	
8.58211	  0.147782	
8.61538	  0.143313	
8.64864	  0.153820	
8.6819	  0.166034	
8.71517	  0.177081	
8.74843	  0.186395	
8.7817	  0.189175	
8.81496	  0.189741	
8.84822	  0.192103	
8.88149	  0.189743	
8.91475	  0.177732	
8.94802	  0.158922	
8.98128	  0.144102	
9.01454	  0.145989	
9.04781	  0.163781	
9.08107	  0.186881	
9.11434	  0.205424	
9.1476	  0.207149	
9.18086	  0.191108	
9.21413	  0.174823	
9.24739	  0.167781	
9.28066	  0.167019	
9.31392	  0.172284	
9.34718	  0.181351	
9.38045	  0.191010	
9.41371	  0.200384	
9.44698	  0.205335	
9.48024	  0.208131	
9.5135	  0.218399	
9.54677	  0.236368	
9.58003	  0.254567	
9.6133	  0.265569	
9.64656	  0.264758	
9.67982	  0.257777	
9.71309	  0.252734	
9.74635	  0.249628	
9.77962	  0.248418	
9.81288	  0.247923	
9.84614	  0.242595	
9.87941	  0.235385	
9.91267	  0.233222	
9.94594	  0.234696	
9.9792	  0.239224	
10.0125	  0.246687	
10.0457	  0.250274	
10.079	  0.249834	
10.1123	  0.250827	
10.1455	  0.249986	
10.1788	  0.247018	
10.212	  0.250765	
10.2453	  0.263145	
10.2786	  0.277726	
10.3118	  0.287951	
10.3451	  0.290418	
10.3784	  0.288024	
10.4116	  0.283700	
10.4449	  0.277325	
10.4782	  0.274257	
10.5114	  0.277523	
10.5447	  0.279620	
10.578	  0.277027	
10.6112	  0.272714	
10.6445	  0.267240	
10.6777	  0.263676	
10.711	  0.264752	
10.7443	  0.265697	
10.7775	  0.263960	
10.8108	  0.259741	
10.8441	  0.249456	
10.8773	  0.236878	
10.9106	  0.232843	
10.9439	  0.237715	
10.9771	  0.242969	
11.0104	  0.243954	
11.0436	  0.242836	
11.0769	  0.245286	
11.1102	  0.251630	
11.1434	  0.255721	
11.1767	  0.256491	
11.21	  0.256837	
11.2432	  0.255491	
11.2765	  0.249011	
11.3098	  0.233634	
11.343	  0.212552	
11.3763	  0.198122	
11.4096	  0.192992	
11.4428	  0.188179	
11.4761	  0.179989	
11.5093	  0.169994	
11.5426	  0.163144	
11.5759	  0.166068	
11.6091	  0.174415	
11.6424	  0.177768	
11.6757	  0.174452	
11.7089	  0.169039	
11.7422	  0.169416	
11.7755	  0.179981	
11.8087	  0.189894	
11.842	  0.187730	
11.8752	  0.177651	
11.9085	  0.168852	
11.9418	  0.169079	
11.975	  0.181825	
12.0083	  0.195543	
12.0416	  0.198433	
